# xmcd CD database file
#
# Track frame offsets:
#	150
#	23222
#	43252
#	60735
#
# Disc length: 1079 seconds
#
# Revision: 0
# Processed by: cddbd v1.5.1PL0 Copyright (c) Steve Scherf et al.
# Submitted via: CDex 1.51
#
DISCID=31043504
DTITLE=千歳屋 - TECNO HEART 〜Euro Remix〜
DYEAR=2000
DGENRE=Game
TTITLE0=Feeling Heart
TTITLE1=Brand-New Heart
TTITLE2=あたらしい予感
TTITLE3=それぞれの未来へ
EXTD=YEAR: 2000
EXTT0=
EXTT1=
EXTT2=
EXTT3=
PLAYORDER=
